<?xml version="1.0" standalone="no"?>
<!DOCTYPE svg PUBLIC "-//W3C//DTD SVG 20010904//EN"
 "http://www.w3.org/TR/2001/REC-SVG-20010904/DTD/svg10.dtd">
<svg version="1.0" xmlns="http://www.w3.org/2000/svg"
 width="420.000000pt" height="420.000000pt" viewBox="0 0 420.000000 420.000000"
 preserveAspectRatio="xMidYMid meet">
<metadata>
Created by potrace 1.16, written by Peter Selinger 2001-2019
</metadata>
<g transform="translate(0.000000,420.000000) scale(0.100000,-0.100000)"
fill="#000000" stroke="none">
<path d="M1765 3681 l-30 -8 30 -12 c17 -6 49 -19 72 -29 24 -9 43 -22 43 -29
0 -13 -49 -133 -60 -146 -5 -6 -155 43 -182 59 -4 3 4 35 17 71 14 36 23 68
21 70 -16 17 -417 -164 -533 -241 -40 -26 -103 -78 -141 -115 -135 -134 -212
-282 -313 -596 -47 -149 -85 -241 -174 -425 -157 -325 -196 -464 -181 -643 18
-213 69 -366 264 -783 99 -213 122 -302 102 -399 -15 -75 -52 -116 -123 -138
-82 -26 -88 -39 -39 -85 23 -21 64 -49 91 -62 l50 -23 -25 -30 c-25 -30 -25
-31 -7 -44 47 -35 125 -46 300 -45 129 1 183 -2 214 -13 28 -10 82 -15 162
-15 140 0 170 10 254 88 l52 48 6 -33 c3 -18 17 -45 29 -60 22 -25 31 -28 104
-31 70 -4 88 -1 135 21 30 14 65 39 78 56 24 33 39 40 39 17 0 -46 82 -96 160
-98 93 -2 142 45 156 150 l6 48 54 -52 c105 -103 240 -122 326 -45 26 23 32
37 36 84 l4 57 57 0 c31 0 74 5 96 11 22 5 77 13 123 18 71 7 87 12 112 36 37
35 58 84 41 94 -8 5 -5 13 10 27 24 21 53 75 63 116 8 33 -22 58 -70 58 -50 0
-54 30 -29 244 13 110 19 131 38 147 12 10 28 18 35 19 6 0 12 8 12 18 0 20
44 47 70 43 11 -1 12 0 3 7 -10 6 -7 17 13 43 14 19 36 55 50 81 l23 46 173 4
c192 3 208 8 272 74 58 60 80 117 81 210 0 73 -3 85 -30 130 -19 30 -49 60
-79 79 -43 26 -59 30 -121 30 -62 0 -78 -4 -120 -30 -64 -39 -95 -97 -95 -175
0 -71 27 -116 90 -148 38 -20 56 -23 112 -19 82 5 128 32 157 90 19 38 21 39
21 15 0 -36 -15 -73 -40 -98 -18 -18 -32 -20 -162 -20 -79 0 -159 3 -178 6
l-35 6 3 106 c5 177 -12 247 -153 627 -52 138 -96 262 -100 276 -7 26 -6 27
39 22 39 -5 48 -2 70 21 26 29 39 82 35 143 -3 40 -16 66 -29 58 -4 -2 -10 51
-13 118 -3 70 -14 152 -25 192 -23 87 -89 215 -143 278 -48 56 -164 144 -240
183 -30 15 -67 37 -84 49 -57 43 -135 75 -207 86 -40 5 -93 14 -118 19 -93 19
-138 21 -193 11 -53 -10 -59 -8 -114 20 -93 48 -331 82 -418 60z m971 -715
c107 -19 212 -103 264 -211 22 -45 56 -192 47 -201 -3 -3 -14 -1 -25 5 -54 29
-202 -1 -202 -40 0 -22 6 -23 84 -8 70 13 112 5 131 -25 20 -29 32 -181 23
-285 -4 -46 -9 -86 -12 -89 -3 -3 -24 1 -46 8 -34 11 -50 11 -103 -2 -34 -9
-86 -25 -114 -37 -52 -20 -53 -21 -63 0 -15 27 -32 15 -20 -15 5 -13 6 -27 2
-30 -3 -4 19 4 48 17 93 40 225 61 278 43 18 -6 24 -3 31 16 8 19 10 15 11
-27 4 -115 5 -115 62 -265 47 -121 60 -239 36 -320 -13 -43 -16 -45 -53 -48
-22 -2 -44 -8 -49 -13 -6 -5 -68 -9 -138 -9 -124 0 -128 1 -118 19 24 45 -7
78 -38 41 -20 -24 -97 -40 -196 -40 -124 0 -138 -13 -90 -82 54 -77 147 -109
324 -109 63 0 135 -4 160 -7 l45 -7 -136 -66 c-91 -45 -141 -76 -153 -94 -82
-125 -181 -172 -312 -145 -67 14 -155 52 -175 77 -8 9 -16 43 -19 77 -6 69 2
65 -110 51 -39 -5 -74 -2 -119 9 -150 38 -254 115 -412 304 -43 52 -99 107
-126 124 -26 17 -49 32 -51 33 -10 9 38 144 86 245 30 63 63 137 73 164 25 62
85 251 94 294 5 23 15 37 33 44 63 25 173 78 184 88 7 6 24 20 38 32 66 55
196 79 325 58 145 -23 185 -24 185 -7 0 31 -120 59 -265 62 -71 1 -131 3 -133
4 -1 0 29 41 68 90 87 111 194 211 274 256 60 34 62 35 181 34 66 0 152 -6
191 -13z m934 -1297 c0 -18 4 -20 30 -14 38 8 80 -30 80 -73 0 -57 -79 -97
-140 -72 -37 15 -50 37 -50 85 0 28 7 44 31 66 37 34 49 36 49 8z m-2140 -921
c38 -29 69 -59 69 -66 1 -13 -94 -134 -110 -140 -12 -5 -164 120 -161 132 6
19 106 124 120 125 7 0 44 -23 82 -51z"/>
<path d="M3145 3519 c-25 -44 -45 -82 -43 -84 2 -1 21 -12 43 -24 23 -13 31
-20 18 -17 -13 2 -23 -1 -23 -6 0 -6 12 -8 31 -4 21 4 43 -1 71 -15 22 -11 42
-19 44 -16 2 2 19 41 37 86 18 45 37 78 42 74 4 -5 5 -3 2 4 -7 11 -113 64
-155 77 -17 6 -27 -6 -67 -75z"/>
</g>
</svg>
